<?xml version="1.0" standalone="no"?>
<!DOCTYPE svg PUBLIC "-//W3C//DTD SVG 20010904//EN"
 "http://www.w3.org/TR/2001/REC-SVG-20010904/DTD/svg10.dtd">
<svg version="1.0" xmlns="http://www.w3.org/2000/svg"
 width="554.000000pt" height="600.000000pt" viewBox="0 0 554.000000 600.000000"
 preserveAspectRatio="xMidYMid meet">

<g transform="translate(0.000000,600.000000) scale(0.100000,-0.100000)"
fill="#000000" stroke="none">
<path d="M4150 5925 l0 -75 100 0 100 0 0 75 0 75 -100 0 -100 0 0 -75z"/>
<path d="M2675 5967 c-101 -26 -174 -78 -201 -144 -18 -42 -18 -145 0 -187 26
-64 116 -112 294 -161 112 -30 117 -35 82 -93 -23 -37 -72 -62 -124 -62 -40 0
-140 30 -221 65 -32 14 -60 24 -62 21 -3 -2 1 -45 7 -94 l12 -89 52 -12 c190
-41 302 -39 401 7 101 48 154 140 140 247 -13 111 -71 153 -295 216 -63 18
-116 33 -118 35 -2 1 3 17 11 36 23 55 60 78 127 78 57 0 168 -28 223 -56 l27
-15 0 85 0 85 -37 10 c-135 36 -248 46 -318 28z"/>
<path d="M100 5900 l0 -70 79 0 80 0 7 -47 c12 -81 8 -324 -7 -378 -13 -45
-18 -50 -54 -61 -22 -7 -77 -13 -123 -13 l-83 -1 6 -52 c12 -105 5 -98 98 -98
172 0 273 34 317 105 39 63 52 182 48 443 l-3 237 -182 3 -183 2 0 -70z"/>
<path d="M5160 5873 l0 -68 -45 -40 -46 -40 44 -61 45 -61 7 -163 c4 -90 11
-175 14 -189 6 -23 18 -29 92 -48 141 -37 211 -26 244 37 30 59 24 67 -65 74
-64 6 -82 11 -90 26 -21 40 -31 127 -24 218 l6 92 84 0 84 0 0 65 0 65 -84 0
-83 0 -7 46 c-3 26 -6 62 -6 80 l0 34 -85 0 -85 0 0 -67z"/>
<path d="M715 5783 c-22 -2 -55 -6 -72 -9 l-33 -5 0 -62 0 -62 128 0 c116 0
130 -2 165 -24 21 -13 37 -25 35 -27 -2 -2 -57 -14 -122 -28 -66 -14 -140 -36
-165 -48 -120 -60 -120 -250 0 -317 44 -25 79 -26 165 -5 54 14 85 15 175 8
l109 -9 0 191 c0 244 -8 287 -59 336 -63 59 -151 76 -326 61z m197 -423 l-7
-45 -78 -3 -77 -3 6 63 c4 35 9 66 13 70 3 3 38 10 76 15 l70 8 3 -30 c1 -16
-1 -50 -6 -75z"/>
<path d="M1175 5779 c2 -8 25 -81 50 -164 26 -82 69 -207 96 -276 l49 -126 75
-17 c116 -25 107 -30 155 92 51 132 170 469 170 482 0 6 -36 10 -85 10 -70 0
-86 -3 -93 -17 -5 -10 -31 -89 -57 -175 -26 -87 -51 -158 -54 -158 -4 0 -31
68 -61 152 -30 83 -60 157 -67 163 -6 7 -40 18 -75 24 -35 7 -73 15 -86 18
-16 4 -21 1 -17 -8z"/>
<path d="M1935 5781 c-22 -3 -45 -10 -51 -13 -13 -9 -50 -115 -42 -123 3 -4
48 -2 99 4 116 13 182 -1 227 -46 17 -16 17 -16 -109 -38 -115 -20 -188 -51
-222 -96 -33 -45 -40 -82 -27 -148 11 -58 35 -92 85 -119 40 -21 158 -21 206
0 27 12 48 14 80 8 24 -4 70 -11 102 -15 l57 -6 0 208 c-1 233 -7 283 -40 318
-47 50 -105 68 -219 71 -58 2 -124 -1 -146 -5z m221 -363 c-3 -29 -6 -65 -6
-80 l0 -28 -80 0 -81 0 7 63 c4 34 8 64 10 66 3 3 111 25 148 30 5 0 6 -23 2
-51z"/>
<path d="M3325 5777 c-134 -45 -211 -137 -222 -267 -18 -193 122 -330 336
-330 89 0 147 14 159 38 10 19 35 142 30 147 -2 1 -43 -11 -93 -27 -133 -43
-195 -27 -231 59 -28 65 -12 181 32 228 37 40 84 42 190 6 51 -17 95 -31 99
-31 3 0 3 16 0 35 -3 19 -7 51 -10 70 -5 29 -13 39 -48 57 -52 27 -182 35
-242 15z"/>
<path d="M3710 5490 l0 -300 90 0 90 0 0 204 0 204 103 7 102 7 -3 76 c-2 42
-5 83 -7 89 -3 9 -25 5 -82 -16 l-78 -28 -80 22 c-44 12 -92 25 -107 28 l-28
7 0 -300z"/>
<path d="M4170 5485 l0 -295 85 0 85 0 0 295 0 295 -85 0 -85 0 0 -295z"/>
<path d="M4480 5379 l0 -399 90 0 90 0 0 105 0 104 91 0 c117 0 177 19 223 72
49 58 71 135 71 249 0 81 -4 103 -26 151 -16 34 -41 67 -65 85 -36 28 -41 29
-123 25 -135 -7 -273 -7 -313 1 l-38 7 0 -400z m366 235 c4 -15 7 -73 8 -129
1 -133 -15 -153 -141 -170 l-53 -7 0 166 0 166 90 0 c89 0 90 0 96 -26z"/>
</g>
</svg>
